<svg width="182" height="229" viewBox="0 0 182 229" xmlns="http://www.w3.org/2000/svg">
<path d="M115.2 158.8C115.2 162.059 112.843 164.743 109.782 166.579C106.706 168.425 102.793 169.5 99.4004 169.5C96.9399 169.5 94.4107 168.889 92.7881 167.591L92.7783 167.583L92.7695 167.575C80.205 156.506 66.5199 146.7 43.5996 146.7C36.5877 146.7 28.6635 147.822 22.5098 151.322C16.3928 154.802 12 160.642 12 170.2C12.0001 176.216 15.4028 181.393 20.8252 185.801C26.2477 190.208 33.6325 193.795 41.4453 196.617C57.0757 202.264 74.2677 204.8 80.5 204.8C109.33 204.8 127.491 195.244 138.446 183.435C149.416 171.609 153.2 157.484 153.2 148.3C153.2 139.919 150.986 133.525 147.144 128.589C143.296 123.646 137.782 120.124 131.113 117.548C117.753 112.386 99.9129 111.076 81.96 109.648C64.0582 108.225 46.0452 106.686 32.5127 101.005C25.7342 98.1592 20.0475 94.2625 16.0576 88.7939C12.0643 83.3208 9.7998 76.3128 9.7998 67.2998C9.79989 44.8566 23.5363 28.1407 43.8105 17.0615C64.0782 5.98591 90.9416 0.5 117.4 0.5C140.915 0.500101 160.325 9.84926 169.14 27.7627C170.092 29.3616 170.4 31.2506 170.4 32.7998C170.4 38.1385 166.492 43.0677 161.802 46.623C159.443 48.4111 156.856 49.8769 154.397 50.8965C151.946 51.9129 149.591 52.5 147.7 52.5H147.658L147.618 52.4932L145.835 52.1963C145.55 52.1771 145.304 52.0361 145.134 51.8662C144.951 51.6835 144.8 51.4122 144.8 51.0996C144.8 50.9875 144.789 50.7785 144.891 50.5762C144.939 50.48 145.001 50.4037 145.055 50.3438C145.102 50.2912 145.16 50.2315 145.223 50.1689C146.28 48.8104 147.824 46.8969 149.111 44.8008C150.414 42.6795 151.4 40.4547 151.4 38.5C151.4 37.8874 151.392 37.4037 151.152 36.9238L151.14 36.8965L151.129 36.8682C150.984 36.4629 150.61 35.9641 149.945 35.3975C149.288 34.8375 148.384 34.2429 147.244 33.6348C144.965 32.419 141.784 31.1743 137.851 30.0557C129.985 27.8192 119.156 26.0996 106.6 26.0996C94.0458 26.0997 76.9453 28.4191 63.0029 34.6074C49.0568 40.7975 38.4006 50.7891 38.4004 66.0996C38.4004 72.2247 40.5647 76.6658 44.3398 79.9756C48.1379 83.3053 53.5997 85.5195 60.2344 87.0918C66.8634 88.6628 74.6101 89.5811 82.9395 90.3555C91.2551 91.1286 100.164 91.7587 109.056 92.7529C126.838 94.7412 144.721 98.1993 158.161 107.282C171.646 116.395 180.6 131.129 180.6 155.5C180.6 182.429 165.005 200.645 146.16 212.103C127.329 223.552 105.188 228.3 91.9004 228.3C77.1181 228.3 54.3169 223.405 35.2021 213.885C16.1188 204.381 0.500212 190.155 0.5 171.4C0.5 156.8 7.88977 146.603 18.1699 140.078C28.4312 133.565 41.5803 130.7 53.2002 130.7C64.9206 130.7 75.7187 131.6 85.9297 135.533C96.1509 139.47 105.747 146.432 115.095 158.494L115.2 158.629V158.8Z" fill="currentColor" stroke="currentColor"/>
</svg>